<svg xmlns="http://www.w3.org/2000/svg" version="1.1" xmlns:xlink="http://www.w3.org/1999/xlink" xmlns:svgjs="http://svgjs.dev/svgjs" width="1500" height="1500" viewBox="0 0 1500 1500"><rect width="1500" height="1500" fill="#ffffff"></rect><g transform="matrix(0.6666666666666666,0,0,0.6666666666666666,250.15841473633571,489.6666666666667)"><svg viewBox="0 0 384 200" data-background-color="#ffffff" preserveAspectRatio="xMidYMid meet" height="781" width="1500" xmlns="http://www.w3.org/2000/svg" xmlns:xlink="http://www.w3.org/1999/xlink"><g id="tight-bounds" transform="matrix(1,0,0,1,-0.06083125875289852,0)"><svg viewBox="0 0 384.1216625175058 200" height="200" width="384.1216625175058"><g><svg viewBox="0 0 386.0422708300933 200.99999999999997" height="200" width="384.1216625175058"><g><rect width="4.158667689778388" height="200.99999999999997" x="148.43185069869776" y="0" fill="#6b7280" opacity="1" stroke-width="0" stroke="transparent" fill-opacity="1" class="rect-qz-0" data-fill-palette-color="primary" rx="1%" id="qz-0" data-palette-color="#6b7280"></rect></g><g transform="matrix(1,0,0,1,163.47708302140387,0.4999999999999858)"><svg viewBox="0 0 222.56518780868942 200" height="200" width="222.56518780868942"><g id="textblocktransform"><svg viewBox="0 0 222.56518780868942 200" height="200" width="222.56518780868942" id="textblock"><g><svg viewBox="0 0 222.56518780868942 200" height="200" width="222.56518780868942"><g transform="matrix(1,0,0,1,0,0)"><svg width="222.56518780868942" viewBox="-0.7500000000000001 -34.80657795507565 175.09999999999997 151.42657795507563" height="200" data-palette-color="#6b7280"><svg></svg><svg></svg><svg></svg><svg></svg><g class="wordmark-text-0" data-fill-palette-color="primary" id="text-0"><path d="M3.8 0.6v0c-0.533 0-0.883-0.25-1.05-0.75-0.167-0.5-0.25-1.1-0.25-1.8v0c0-1.167 0.067-2.41 0.2-3.73 0.133-1.313 0.267-2.603 0.4-3.87v0l2.75-25.2 4.15-0.05c1.367-0.033 2.31 0.06 2.83 0.28 0.513 0.213 0.853 0.653 1.02 1.32v0l7.4 27.05-2.6-0.1 11.55-25.15c0.433-0.933 1.233-1.723 2.4-2.37 1.167-0.653 2.583-0.98 4.25-0.98v0c0.667 0 1.177 0.16 1.53 0.48 0.347 0.313 0.47 0.92 0.37 1.82v0l-3.4 32.85h-4c-0.433 0-0.767-0.267-1-0.8-0.233-0.533-0.35-1.283-0.35-2.25v0c0-1.367 0.043-2.85 0.13-4.45 0.08-1.6 0.203-3.133 0.37-4.6v0l1.85-15.8 0.3 0.2-6.55 14.1c-1.333 2.867-2.417 5.14-3.25 6.82-0.833 1.687-1.507 2.947-2.02 3.78-0.52 0.833-0.963 1.373-1.33 1.62-0.367 0.253-0.75 0.38-1.15 0.38v0c-0.433 0-0.79-0.093-1.07-0.28-0.287-0.18-0.513-0.57-0.68-1.17v0l-7.45-25.5 0.45-0.05-1.4 12.95c-0.3 2.633-0.433 4.733-0.4 6.3 0.033 1.567 0.143 2.773 0.33 3.62 0.18 0.853 0.353 1.513 0.52 1.98 0.167 0.467 0.25 0.9 0.25 1.3v0c0 0.367-0.2 0.673-0.6 0.92-0.4 0.253-0.9 0.463-1.5 0.63-0.6 0.167-1.173 0.293-1.72 0.38-0.553 0.08-0.98 0.12-1.28 0.12zM46.35 0.65v0c-1.3 0-2.307-0.36-3.02-1.08-0.72-0.713-1.08-1.787-1.08-3.22v0c0-0.5 0.01-1 0.03-1.5 0.013-0.5 0.063-1.1 0.15-1.8 0.08-0.7 0.187-1.6 0.32-2.7v0l1.9-14.9h3.5c0.567 0 0.943 0.323 1.13 0.97 0.18 0.653 0.27 1.447 0.27 2.38v0c0 0.7-0.05 1.617-0.15 2.75-0.1 1.133-0.25 2.383-0.45 3.75v0l-0.6 4.1c-0.133 0.933-0.223 1.767-0.27 2.5-0.053 0.733-0.08 1.333-0.08 1.8v0c0 0.667 0.077 1.173 0.23 1.52 0.147 0.353 0.437 0.53 0.87 0.53v0c0.5 0 1.133-0.367 1.9-1.1 0.767-0.733 1.577-1.7 2.43-2.9 0.847-1.2 1.637-2.493 2.37-3.88 0.733-1.38 1.333-2.72 1.8-4.02 0.467-1.3 0.7-2.417 0.7-3.35v0c0-0.767-0.09-1.41-0.27-1.93-0.187-0.513-0.263-0.937-0.23-1.27v0c0-0.3 0.193-0.567 0.58-0.8 0.38-0.233 0.837-0.427 1.37-0.58 0.533-0.147 1.067-0.263 1.6-0.35 0.533-0.08 0.95-0.12 1.25-0.12v0c0.567 0 1.01 0.333 1.33 1 0.313 0.667 0.403 1.617 0.27 2.85v0l-2.35 21.2h-3.5c-0.4 0-0.717-0.21-0.95-0.63-0.233-0.413-0.39-0.887-0.47-1.42-0.087-0.533-0.13-0.933-0.13-1.2v0c0-0.767 0.11-1.6 0.33-2.5 0.213-0.9 0.53-2.05 0.95-3.45 0.413-1.4 0.92-3.2 1.52-5.4v0 0.85c-1.3 3.4-2.733 6.117-4.3 8.15-1.567 2.033-3.117 3.5-4.65 4.4-1.533 0.9-2.967 1.35-4.3 1.35zM74.65 0.8v0c-2.533 0-4.523-0.393-5.97-1.18-1.453-0.78-2.18-1.837-2.18-3.17v0c0-0.6 0.093-1.16 0.28-1.68 0.18-0.513 0.453-0.77 0.82-0.77v0c0.133 0 0.283 0.033 0.45 0.1 0.167 0.067 0.483 0.25 0.95 0.55v0c0.667 0.433 1.41 0.833 2.23 1.2 0.813 0.367 1.647 0.657 2.5 0.87 0.847 0.22 1.637 0.33 2.37 0.33v0c1.067 0 1.843-0.26 2.33-0.78 0.48-0.513 0.72-1.203 0.72-2.07v0c0-0.633-0.19-1.16-0.57-1.58-0.387-0.413-0.997-0.887-1.83-1.42v0l-3.1-2c-1.3-0.833-2.39-1.727-3.27-2.68-0.887-0.947-1.33-2.187-1.33-3.72v0c0-2.167 0.833-3.927 2.5-5.28 1.667-1.347 4.017-2.02 7.05-2.02v0c2.133 0 3.7 0.217 4.7 0.65 1 0.433 1.5 1.183 1.5 2.25v0c0 0.833-0.123 1.533-0.37 2.1-0.253 0.567-0.597 0.85-1.03 0.85v0c-0.133 0-0.307-0.033-0.52-0.1-0.22-0.067-0.413-0.15-0.58-0.25v0c-0.267-0.167-0.683-0.4-1.25-0.7-0.567-0.3-1.2-0.577-1.9-0.83-0.7-0.247-1.433-0.37-2.2-0.37v0c-0.767 0-1.39 0.223-1.87 0.67-0.487 0.453-0.73 1.063-0.73 1.83v0c0 0.633 0.2 1.167 0.6 1.6 0.4 0.433 1.067 0.883 2 1.35v0l3.25 1.5c1.367 0.633 2.477 1.373 3.33 2.22 0.847 0.853 1.27 2.113 1.27 3.78v0c0 1.967-0.473 3.6-1.42 4.9-0.953 1.3-2.203 2.267-3.75 2.9-1.553 0.633-3.213 0.95-4.98 0.95zM95.55 0.8v0c-2.567 0-4.55-0.81-5.95-2.43-1.4-1.613-2.1-3.837-2.1-6.67v0c0-2.367 0.333-4.533 1-6.5 0.667-1.967 1.6-3.683 2.8-5.15 1.2-1.467 2.61-2.6 4.23-3.4 1.613-0.8 3.37-1.2 5.27-1.2v0c2.267 0 4 0.483 5.2 1.45 1.2 0.967 1.8 2.35 1.8 4.15v0c0 1.833-0.607 3.433-1.82 4.8-1.22 1.367-2.97 2.533-5.25 3.5-2.287 0.967-5.013 1.783-8.18 2.45v0l-0.65-3c1.833-0.233 3.517-0.633 5.05-1.2 1.533-0.567 2.767-1.327 3.7-2.28 0.933-0.947 1.4-2.07 1.4-3.37v0c0-0.9-0.173-1.583-0.52-2.05-0.353-0.467-0.98-0.7-1.88-0.7v0c-1.367 0-2.523 0.5-3.47 1.5-0.953 1-1.67 2.3-2.15 3.9-0.487 1.6-0.73 3.3-0.73 5.1v0c0 2.433 0.377 4.057 1.13 4.87 0.747 0.82 1.853 1.23 3.32 1.23v0c1.533 0 2.877-0.243 4.03-0.73 1.147-0.48 2.137-0.987 2.97-1.52v0c0.267-0.167 0.5-0.3 0.7-0.4 0.2-0.1 0.367-0.15 0.5-0.15v0c0.167 0 0.3 0.067 0.4 0.2 0.1 0.133 0.15 0.283 0.15 0.45v0c0 0.6-0.267 1.3-0.8 2.1-0.533 0.8-1.29 1.583-2.27 2.35-0.987 0.767-2.147 1.41-3.48 1.93-1.333 0.513-2.8 0.77-4.4 0.77zM114.9 0.65v0c-1.3 0-2.307-0.36-3.02-1.08-0.72-0.713-1.08-1.787-1.08-3.22v0c0-0.5 0.01-1 0.03-1.5 0.013-0.5 0.063-1.1 0.15-1.8 0.08-0.7 0.187-1.6 0.32-2.7v0l1.9-14.9h3.5c0.567 0 0.943 0.323 1.13 0.97 0.18 0.653 0.27 1.447 0.27 2.38v0c0 0.7-0.05 1.617-0.15 2.75-0.1 1.133-0.25 2.383-0.45 3.75v0l-0.6 4.1c-0.133 0.933-0.223 1.767-0.27 2.5-0.053 0.733-0.08 1.333-0.08 1.8v0c0 0.667 0.077 1.173 0.23 1.52 0.147 0.353 0.437 0.53 0.87 0.53v0c0.5 0 1.133-0.367 1.9-1.1 0.767-0.733 1.577-1.7 2.43-2.9 0.847-1.2 1.637-2.493 2.37-3.88 0.733-1.38 1.333-2.72 1.8-4.02 0.467-1.3 0.7-2.417 0.7-3.35v0c0-0.767-0.09-1.41-0.27-1.93-0.187-0.513-0.263-0.937-0.23-1.27v0c0-0.3 0.193-0.567 0.58-0.8 0.38-0.233 0.837-0.427 1.37-0.58 0.533-0.147 1.067-0.263 1.6-0.35 0.533-0.08 0.95-0.12 1.25-0.12v0c0.567 0 1.01 0.333 1.33 1 0.313 0.667 0.403 1.617 0.27 2.85v0l-2.35 21.2h-3.5c-0.4 0-0.717-0.21-0.95-0.63-0.233-0.413-0.39-0.887-0.47-1.42-0.087-0.533-0.13-0.933-0.13-1.2v0c0-0.767 0.11-1.6 0.33-2.5 0.213-0.9 0.53-2.05 0.95-3.45 0.413-1.4 0.92-3.2 1.52-5.4v0 0.85c-1.3 3.4-2.733 6.117-4.3 8.15-1.567 2.033-3.117 3.5-4.65 4.4-1.533 0.9-2.967 1.35-4.3 1.35zM171.4 0.5h-3.65c-0.367 0-0.633-0.177-0.8-0.53-0.167-0.347-0.267-0.737-0.3-1.17-0.033-0.433-0.05-0.783-0.05-1.05v0c0-0.467 0.033-1.067 0.1-1.8 0.067-0.733 0.15-1.51 0.25-2.33 0.1-0.813 0.2-1.52 0.3-2.12v0l0.85-5.2c0.1-0.667 0.2-1.293 0.3-1.88 0.1-0.58 0.15-1.203 0.15-1.87v0c0-0.5-0.1-0.883-0.3-1.15-0.2-0.267-0.467-0.4-0.8-0.4v0c-0.433 0-1.15 0.417-2.15 1.25-1 0.833-2.067 2.017-3.2 3.55-1.133 1.533-2.167 3.383-3.1 5.55-0.933 2.167-1.533 4.583-1.8 7.25v0l-1.1-7.35c1.367-3.867 2.893-6.95 4.58-9.25 1.68-2.3 3.353-3.96 5.02-4.98 1.667-1.013 3.117-1.52 4.35-1.52v0c1.033 0 1.86 0.183 2.48 0.55 0.613 0.367 1.07 0.9 1.37 1.6 0.3 0.7 0.45 1.533 0.45 2.5v0c0 0.7-0.057 1.44-0.17 2.22-0.12 0.787-0.247 1.613-0.38 2.48v0zM138.05 0.7v0c-0.433 0-0.757-0.073-0.97-0.22-0.22-0.153-0.337-0.547-0.35-1.18-0.02-0.633 0.053-1.65 0.22-3.05v0l2.35-20.8h3.5c0.667 0 1.16 0.367 1.48 1.1 0.313 0.733 0.47 1.567 0.47 2.5v0c0 0.433-0.123 1.107-0.37 2.02-0.253 0.92-0.547 1.887-0.88 2.9-0.333 1.02-0.633 1.913-0.9 2.68v0l-1.3 4.1 1.85-0.3-0.85 8.15c-0.033 0.333-0.223 0.633-0.57 0.9-0.353 0.267-0.763 0.493-1.23 0.68-0.467 0.18-0.923 0.313-1.37 0.4-0.453 0.08-0.813 0.12-1.08 0.12zM152.8 0.7v0c-0.6 0-0.967-0.117-1.1-0.35-0.133-0.233-0.2-0.633-0.2-1.2v0c0-0.5 0.06-1.317 0.18-2.45 0.113-1.133 0.37-2.867 0.77-5.2v0l0.9-5.15c0.133-0.667 0.243-1.327 0.33-1.98 0.08-0.647 0.12-1.303 0.12-1.97v0c0-0.467-0.083-0.817-0.25-1.05-0.167-0.233-0.433-0.35-0.8-0.35v0c-0.467 0-1.217 0.417-2.25 1.25-1.033 0.833-2.123 2.017-3.27 3.55-1.153 1.533-2.197 3.383-3.13 5.55-0.933 2.167-1.533 4.583-1.8 7.25v0l-1.2-7.35c1-2.9 2.133-5.35 3.4-7.35 1.267-2 2.55-3.617 3.85-4.85 1.3-1.233 2.543-2.133 3.73-2.7 1.18-0.567 2.203-0.85 3.07-0.85v0c1.1 0 1.96 0.2 2.58 0.6 0.613 0.4 1.047 0.923 1.3 1.57 0.247 0.653 0.37 1.33 0.37 2.03v0c0 0.833-0.133 1.7-0.4 2.6-0.267 0.9-0.623 1.99-1.07 3.27-0.453 1.287-0.947 2.93-1.48 4.93v0l1.65-0.6-0.9 8.7c-0.033 0.333-0.217 0.633-0.55 0.9-0.333 0.267-0.74 0.483-1.22 0.65-0.487 0.167-0.97 0.3-1.45 0.4-0.487 0.1-0.88 0.15-1.18 0.15z" fill="#6b7280" fill-rule="nonzero" stroke="none" stroke-width="1" stroke-linecap="butt" stroke-linejoin="miter" stroke-miterlimit="10" stroke-dasharray="" stroke-dashoffset="0" font-family="none" font-weight="none" font-size="none" text-anchor="none" style="mix-blend-mode: normal" data-fill-palette-color="primary" opacity="1"></path><path transform="translate(0,38.61)" d="M8.2 0.4h-3.5c-0.467 0-0.84-0.2-1.12-0.6-0.287-0.4-0.497-0.917-0.63-1.55-0.133-0.633-0.2-1.267-0.2-1.9v0c0-1.367 0.083-2.683 0.25-3.95 0.167-1.267 0.317-2.633 0.45-4.1v0l2.4-23.05h3.5c0.867 0 1.443 0.327 1.73 0.98 0.28 0.647 0.42 1.42 0.42 2.32v0c0 0.8-0.033 1.517-0.1 2.15-0.067 0.633-0.157 1.4-0.27 2.3-0.12 0.9-0.263 2.133-0.43 3.7v0zM34.55 0.5h-3.55c-0.367 0-0.64-0.177-0.82-0.53-0.187-0.347-0.303-0.737-0.35-1.17-0.053-0.433-0.08-0.783-0.08-1.05v0c0-0.467 0.033-1.067 0.1-1.8 0.067-0.733 0.15-1.51 0.25-2.33 0.1-0.813 0.2-1.52 0.3-2.12v0l0.85-5.2c0.1-0.667 0.2-1.293 0.3-1.88 0.1-0.58 0.15-1.203 0.15-1.87v0c0-0.5-0.1-0.883-0.3-1.15-0.2-0.267-0.467-0.4-0.8-0.4v0c-0.433 0-1.15 0.417-2.15 1.25-1 0.833-2.067 2.023-3.2 3.57-1.133 1.553-2.157 3.413-3.07 5.58-0.92 2.167-1.513 4.583-1.78 7.25v0l-1.3-7.4c1-2.9 2.127-5.35 3.38-7.35 1.247-2 2.52-3.617 3.82-4.85 1.3-1.233 2.56-2.133 3.78-2.7 1.213-0.567 2.287-0.85 3.22-0.85v0c1 0 1.81 0.183 2.43 0.55 0.613 0.367 1.063 0.873 1.35 1.52 0.28 0.653 0.42 1.413 0.42 2.28v0c0 0.833-0.057 1.657-0.17 2.47-0.12 0.82-0.247 1.663-0.38 2.53v0zM16.05 0.7v0c-0.433 0-0.757-0.073-0.97-0.22-0.22-0.153-0.337-0.547-0.35-1.18-0.02-0.633 0.053-1.65 0.22-3.05v0l2.35-20.8h3.5c0.5 0 0.95 0.367 1.35 1.1 0.4 0.733 0.6 1.567 0.6 2.5v0c0 0.433-0.123 1.107-0.37 2.02-0.253 0.92-0.547 1.887-0.88 2.9-0.333 1.02-0.633 1.913-0.9 2.68v0l-1.3 4.1 1.85-0.3-0.8 8.2c-0.033 0.333-0.233 0.633-0.6 0.9-0.367 0.267-0.8 0.483-1.3 0.65-0.5 0.167-0.977 0.293-1.43 0.38-0.447 0.08-0.77 0.12-0.97 0.12z" fill="#6b7280" fill-rule="nonzero" stroke="none" stroke-width="1" stroke-linecap="butt" stroke-linejoin="miter" stroke-miterlimit="10" stroke-dasharray="" stroke-dashoffset="0" font-family="none" font-weight="none" font-size="none" text-anchor="none" style="mix-blend-mode: normal" data-fill-palette-color="primary" opacity="1"></path><path transform="translate(0,77.21)" d="M16.6-13.05h-4.25l-4.5-10.7c-0.667-1.6-1.273-2.91-1.82-3.93-0.553-1.013-1.163-1.787-1.83-2.32v0c-0.833-0.667-1.383-1.15-1.65-1.45-0.267-0.3-0.4-0.617-0.4-0.95v0c0-0.3 0.283-0.627 0.85-0.98 0.567-0.347 1.217-0.653 1.95-0.92 0.733-0.267 1.35-0.4 1.85-0.4v0c1.367 0 2.51 0.56 3.43 1.68 0.913 1.113 1.703 2.62 2.37 4.52v0l3.7 10.4-1.5 1.1 5-7.7c0.933-1.4 1.51-2.617 1.73-3.65 0.213-1.033 0.353-1.9 0.42-2.6v0c0.067-0.6 0.433-1.123 1.1-1.57 0.667-0.453 1.45-0.847 2.35-1.18 0.9-0.333 1.76-0.583 2.58-0.75 0.813-0.167 1.42-0.25 1.82-0.25v0c0.6 0 0.9 0.267 0.9 0.8v0c0 0.333-0.133 0.75-0.4 1.25-0.267 0.5-0.633 1.067-1.1 1.7v0zM16.15 0.4h-4.05c-0.6 0-1.017-0.267-1.25-0.8-0.233-0.533-0.35-1.25-0.35-2.15v0c0-0.667 0.05-1.417 0.15-2.25v0l1.35-12.15 5.95 0.9zM35 0.75v0c-2.867 0-5.09-0.843-6.67-2.53-1.587-1.68-2.38-4.153-2.38-7.42v0c0-2.167 0.36-4.177 1.08-6.03 0.713-1.847 1.687-3.47 2.92-4.87 1.233-1.4 2.66-2.493 4.28-3.28 1.613-0.78 3.32-1.17 5.12-1.17v0c2.867 0 5.06 0.85 6.58 2.55 1.513 1.7 2.27 4.267 2.27 7.7v0c0 2.067-0.34 4.01-1.02 5.83-0.687 1.813-1.63 3.41-2.83 4.79-1.2 1.387-2.6 2.47-4.2 3.25-1.6 0.787-3.317 1.18-5.15 1.18zM36.2-3v0c1.267 0 2.36-0.467 3.28-1.4 0.913-0.933 1.613-2.217 2.1-3.85 0.48-1.633 0.72-3.467 0.72-5.5v0c0-2.167-0.323-3.883-0.97-5.15-0.653-1.267-1.73-1.9-3.23-1.9v0c-1.233 0-2.323 0.467-3.27 1.4-0.953 0.933-1.687 2.207-2.2 3.82-0.52 1.62-0.78 3.463-0.78 5.53v0c0 2.3 0.367 4.05 1.1 5.25 0.733 1.2 1.817 1.8 3.25 1.8zM55.6 0.65v0c-1.3 0-2.307-0.36-3.02-1.08-0.72-0.713-1.08-1.787-1.08-3.22v0c0-0.5 0.01-1 0.03-1.5 0.013-0.5 0.063-1.1 0.15-1.8 0.08-0.7 0.187-1.6 0.32-2.7v0l1.9-14.9h3.5c0.567 0 0.943 0.323 1.13 0.97 0.18 0.653 0.27 1.447 0.27 2.38v0c0 0.7-0.05 1.617-0.15 2.75-0.1 1.133-0.25 2.383-0.45 3.75v0l-0.6 4.1c-0.133 0.933-0.223 1.767-0.27 2.5-0.053 0.733-0.08 1.333-0.08 1.8v0c0 0.667 0.077 1.173 0.23 1.52 0.147 0.353 0.437 0.53 0.87 0.53v0c0.5 0 1.133-0.367 1.9-1.1 0.767-0.733 1.577-1.7 2.43-2.9 0.847-1.2 1.637-2.493 2.37-3.88 0.733-1.38 1.333-2.72 1.8-4.02 0.467-1.3 0.7-2.417 0.7-3.35v0c0-0.767-0.09-1.41-0.27-1.93-0.187-0.513-0.263-0.937-0.23-1.27v0c0-0.3 0.193-0.567 0.58-0.8 0.38-0.233 0.837-0.427 1.37-0.58 0.533-0.147 1.067-0.263 1.6-0.35 0.533-0.08 0.95-0.12 1.25-0.12v0c0.567 0 1.01 0.333 1.33 1 0.313 0.667 0.403 1.617 0.27 2.85v0l-2.35 21.2h-3.5c-0.4 0-0.717-0.21-0.95-0.63-0.233-0.413-0.39-0.887-0.47-1.42-0.087-0.533-0.13-0.933-0.13-1.2v0c0-0.767 0.11-1.6 0.33-2.5 0.213-0.9 0.53-2.05 0.95-3.45 0.413-1.4 0.92-3.2 1.52-5.4v0 0.85c-1.3 3.4-2.733 6.117-4.3 8.15-1.567 2.033-3.117 3.5-4.65 4.4-1.533 0.9-2.967 1.35-4.3 1.35zM82.95-1.2v0l-1.2-7.55c1.233-3.2 2.493-5.973 3.78-8.32 1.28-2.353 2.587-4.18 3.92-5.48 1.333-1.3 2.683-1.95 4.05-1.95v0c0.767 0 1.317 0.24 1.65 0.72 0.333 0.487 0.5 1.097 0.5 1.83v0c0 0.667-0.073 1.307-0.22 1.92-0.153 0.62-0.37 1.13-0.65 1.53-0.287 0.4-0.63 0.6-1.03 0.6v0c-0.367 0-0.773-0.117-1.22-0.35-0.453-0.233-1.063-0.35-1.83-0.35v0c-0.5 0-1.133 0.517-1.9 1.55-0.767 1.033-1.557 2.407-2.37 4.12-0.82 1.72-1.547 3.603-2.18 5.65-0.633 2.053-1.067 4.08-1.3 6.08zM78.75 0.7v0c-0.433 0-0.757-0.073-0.97-0.22-0.22-0.153-0.337-0.547-0.35-1.18-0.02-0.633 0.053-1.65 0.22-3.05v0l2.35-20.8h3.5c0.5 0 0.95 0.367 1.35 1.1 0.4 0.733 0.6 1.567 0.6 2.5v0c0 0.433-0.123 1.107-0.37 2.02-0.253 0.92-0.547 1.887-0.88 2.9-0.333 1.02-0.633 1.913-0.9 2.68v0l-1.3 4.1 1.85-0.3-0.9 8.35c-0.033 0.333-0.233 0.623-0.6 0.87-0.367 0.253-0.79 0.457-1.27 0.61-0.487 0.147-0.947 0.253-1.38 0.32-0.433 0.067-0.75 0.1-0.95 0.1z" fill="#6b7280" fill-rule="nonzero" stroke="none" stroke-width="1" stroke-linecap="butt" stroke-linejoin="miter" stroke-miterlimit="10" stroke-dasharray="" stroke-dashoffset="0" font-family="none" font-weight="none" font-size="none" text-anchor="none" style="mix-blend-mode: normal" data-fill-palette-color="primary" opacity="1"></path><path transform="translate(0,115.82)" d="M0.6 0.7v0c-0.9 0-1.35-0.283-1.35-0.85v0c0-0.267 0.133-0.7 0.4-1.3v0l14.85-29.95c0.233-0.5 0.717-1 1.45-1.5 0.733-0.5 1.617-0.927 2.65-1.28 1.033-0.347 2.1-0.52 3.2-0.52v0c0.267 0 0.527 0.083 0.78 0.25 0.247 0.167 0.42 0.567 0.52 1.2v0c0.567 3.833 1.25 7.683 2.05 11.55 0.8 3.867 1.717 7.65 2.75 11.35v0c0.467 1.567 0.867 2.833 1.2 3.8 0.333 0.967 0.667 1.7 1 2.2v0c0.367 0.5 0.693 0.907 0.98 1.22 0.28 0.32 0.42 0.63 0.42 0.93v0c0 0.333-0.19 0.667-0.57 1-0.387 0.333-0.863 0.633-1.43 0.9-0.567 0.267-1.15 0.483-1.75 0.65-0.6 0.167-1.117 0.25-1.55 0.25v0c-0.733 0-1.483-0.66-2.25-1.98-0.767-1.313-1.517-3.687-2.25-7.12v0l-4.35-20.85 0.95-0.6-9.75 20.5c-0.433 0.933-0.74 1.717-0.92 2.35-0.187 0.633-0.297 1.207-0.33 1.72-0.033 0.52-0.1 1.113-0.2 1.78v0c-0.067 0.633-0.383 1.207-0.95 1.72-0.567 0.52-1.227 0.97-1.98 1.35-0.747 0.387-1.453 0.69-2.12 0.91-0.667 0.213-1.15 0.32-1.45 0.32zM25.5-9.5h-18.6v-3.75h18.6zM39.85-1.2v0l-1.2-7.55c1.233-3.2 2.49-5.973 3.77-8.32 1.287-2.353 2.597-4.18 3.93-5.48 1.333-1.3 2.683-1.95 4.05-1.95v0c0.767 0 1.317 0.24 1.65 0.72 0.333 0.487 0.5 1.097 0.5 1.83v0c0 0.667-0.073 1.307-0.22 1.92-0.153 0.62-0.373 1.13-0.66 1.53-0.28 0.4-0.62 0.6-1.02 0.6v0c-0.367 0-0.777-0.117-1.23-0.35-0.447-0.233-1.053-0.35-1.82-0.35v0c-0.5 0-1.133 0.517-1.9 1.55-0.767 1.033-1.557 2.407-2.37 4.12-0.82 1.72-1.547 3.603-2.18 5.65-0.633 2.053-1.067 4.08-1.3 6.08zM35.65 0.7v0c-0.433 0-0.76-0.073-0.98-0.22-0.213-0.153-0.327-0.547-0.34-1.18-0.02-0.633 0.053-1.65 0.22-3.05v0l2.35-20.8h3.5c0.5 0 0.95 0.367 1.35 1.1 0.4 0.733 0.6 1.567 0.6 2.5v0c0 0.433-0.123 1.107-0.37 2.02-0.253 0.92-0.547 1.887-0.88 2.9-0.333 1.02-0.633 1.913-0.9 2.68v0l-1.3 4.1 1.85-0.3-0.9 8.35c-0.033 0.333-0.233 0.623-0.6 0.87-0.367 0.253-0.79 0.457-1.27 0.61-0.487 0.147-0.947 0.253-1.38 0.32-0.433 0.067-0.75 0.1-0.95 0.1zM59.6 0.8v0c-2.567 0-4.55-0.81-5.95-2.43-1.4-1.613-2.1-3.837-2.1-6.67v0c0-2.367 0.333-4.533 1-6.5 0.667-1.967 1.6-3.683 2.8-5.15 1.2-1.467 2.607-2.6 4.22-3.4 1.62-0.8 3.38-1.2 5.28-1.2v0c2.267 0 4 0.483 5.2 1.45 1.2 0.967 1.8 2.35 1.8 4.15v0c0 1.833-0.607 3.433-1.82 4.8-1.22 1.367-2.97 2.533-5.25 3.5-2.287 0.967-5.013 1.783-8.18 2.45v0l-0.65-3c1.833-0.233 3.517-0.633 5.05-1.2 1.533-0.567 2.767-1.327 3.7-2.28 0.933-0.947 1.4-2.07 1.4-3.37v0c0-0.9-0.173-1.583-0.52-2.05-0.353-0.467-0.98-0.7-1.88-0.7v0c-1.367 0-2.527 0.5-3.48 1.5-0.947 1-1.663 2.3-2.15 3.9-0.48 1.6-0.72 3.3-0.72 5.1v0c0 2.433 0.373 4.057 1.12 4.87 0.753 0.82 1.863 1.23 3.33 1.23v0c1.533 0 2.877-0.243 4.03-0.73 1.147-0.48 2.137-0.987 2.97-1.52v0c0.267-0.167 0.5-0.3 0.7-0.4 0.2-0.1 0.367-0.15 0.5-0.15v0c0.167 0 0.3 0.067 0.4 0.2 0.1 0.133 0.15 0.283 0.15 0.45v0c0 0.6-0.267 1.3-0.8 2.1-0.533 0.8-1.293 1.583-2.28 2.35-0.98 0.767-2.137 1.41-3.47 1.93-1.333 0.513-2.8 0.77-4.4 0.77zM79.05 0.8v0c-1.867 0-3.2-0.76-4-2.28-0.8-1.513-1.2-3.637-1.2-6.37v0c0-2.433 0.36-4.667 1.08-6.7 0.713-2.033 1.687-3.793 2.92-5.28 1.233-1.48 2.667-2.63 4.3-3.45 1.633-0.813 3.367-1.22 5.2-1.22v0c1.433 0 2.743 0.19 3.93 0.57 1.18 0.387 2.187 0.78 3.02 1.18v0l-1.45 5.25c-0.9-0.6-1.907-1.15-3.02-1.65-1.12-0.5-2.153-0.893-3.1-1.18-0.953-0.28-1.663-0.42-2.13-0.42v0c-0.933 0-1.79 0.457-2.57 1.37-0.787 0.92-1.403 2.187-1.85 3.8-0.453 1.62-0.68 3.48-0.68 5.58v0c0 1.933 0.143 3.4 0.43 4.4 0.28 1 0.737 1.5 1.37 1.5v0c0.433 0 1.167-0.493 2.2-1.48 1.033-0.98 2.283-2.62 3.75-4.92 1.467-2.3 3.017-5.417 4.65-9.35v0l1.4 4.45c-1.8 4-3.517 7.183-5.15 9.55-1.633 2.367-3.2 4.067-4.7 5.1-1.5 1.033-2.967 1.55-4.4 1.55zM94.5 0.5h-3.5c-0.667 0-1.067-0.327-1.2-0.98-0.133-0.647-0.2-1.337-0.2-2.07v0c0-0.567 0.077-1.267 0.23-2.1 0.147-0.833 0.337-1.733 0.57-2.7 0.233-0.967 0.483-1.917 0.75-2.85v0l1.1-3.75-1.45-1.3 1.2-7.55c1.067-0.167 2.01-0.383 2.83-0.65 0.813-0.267 1.497-0.5 2.05-0.7 0.547-0.2 0.937-0.3 1.17-0.3v0c0.367 0 0.55 0.2 0.55 0.6v0c0 0.167-0.207 0.873-0.62 2.12-0.42 1.253-0.87 2.847-1.35 4.78-0.487 1.933-0.847 4.033-1.08 6.3v0z" fill="#6b7280" fill-rule="nonzero" stroke="none" stroke-width="1" stroke-linecap="butt" stroke-linejoin="miter" stroke-miterlimit="10" stroke-dasharray="" stroke-dashoffset="0" font-family="none" font-weight="none" font-size="none" text-anchor="none" style="mix-blend-mode: normal" data-fill-palette-color="primary" opacity="1"></path></g></svg></g></svg></g></svg></g></svg></g><g transform="matrix(1,0,0,1,0,31.72609106573914)"><svg viewBox="0 0 137.54528606577006 137.5478178685217" height="137.5478178685217" width="137.54528606577006"><g><svg xmlns="http://www.w3.org/2000/svg" xmlns:xlink="http://www.w3.org/1999/xlink" version="1.1" x="0" y="0" viewBox="20.00145723252803 20.837999999999994 59.99855364855115 59.99965804483813" enable-background="new 0 0 100 100" xml:space="preserve" height="137.5478178685217" width="137.54528606577006" class="icon-icon-0" data-fill-palette-color="accent" id="icon-0"><g fill="#6b7280" data-fill-palette-color="accent"><path d="M73.09 42.513l0.225 0.047 1.493-4.3-0.223-0.051c0.177-0.508 2.889-4.151 4.15-9 1.261-4.848-3.844-8.371-3.844-8.371s2.848 3.087-0.747 7.42c-5.361 6.463-2.063 8.888-2.238 9.396l-0.227-0.042-1.492 4.299 0.225 0.046c0 0-2.771 6.219-3.882 9.416-1.108 3.197-8.068 29.347-7.513 29.463l0.011 0.001c0.726 0.15 10.334-25.391 11.444-28.587S73.09 42.513 73.09 42.513z" fill="#6b7280" data-fill-palette-color="accent"></path><path d="M78.416 41.455l-1.677-1.136-1.78 5.126c-0.189 0.771-0.416 1.67-0.659 2.6h2.095c1.584 0 2.982-1.031 3.447-2.547C80.305 43.984 79.727 42.344 78.416 41.455z" fill="#6b7280" data-fill-palette-color="accent"></path><path d="M60.626 63.223h-2.317V44.439h5.801v6.293c0.02-0.059 0.042-0.129 0.059-0.179 0.654-1.882 1.834-4.709 2.737-6.812l2.183-6.289c-0.269-0.652-0.521-1.542-0.519-2.669l-3.349-2.269-13.198-8.939c-0.611-0.414-1.316-0.623-2.022-0.623s-1.412 0.209-2.023 0.623l-13.195 8.939-13.197 8.939c-1.312 0.889-1.89 2.529-1.426 4.043 0.465 1.516 1.864 2.547 3.447 2.547h3.27v11.607c-1.681 0.234-2.989 1.627-3.096 3.346h-0.174c-1.99 0-3.605 1.613-3.605 3.605v6.836c0 1.992 1.615 3.607 3.605 3.607h33.52c0.496-2.207 1.33-5.526 2.665-10.649C60.061 65.363 60.342 64.294 60.626 63.223zM41.691 63.223H35.89V44.439h5.801V63.223zM52.9 63.223h-5.8V44.439H50 52.9V63.223z" fill="#6b7280" data-fill-palette-color="accent"></path><path d="M76.395 62.998h-0.174c-0.107-1.719-1.416-3.111-3.096-3.346V52.19c-0.099 0.312-0.196 0.608-0.291 0.881-0.535 1.542-3.172 8.625-5.875 15.575-1.407 3.619-2.48 6.345-3.329 8.401h12.764c1.99 0 3.605-1.615 3.605-3.607v-6.836C80 64.611 78.385 62.998 76.395 62.998z" fill="#6b7280" data-fill-palette-color="accent"></path></g></svg></g></svg></g></svg></g><defs></defs></svg><rect width="384.1216625175058" height="200" fill="none" stroke="none" visibility="hidden"></rect></g></svg></g></svg>